<?xml version="1.0" encoding="UTF-8"?>
<svg width="92px" height="28px" viewBox="0 0 92 28" version="1.1" xmlns="http://www.w3.org/2000/svg" xmlns:xlink="http://www.w3.org/1999/xlink">
    <!-- Generator: Sketch 58 (84663) - https://sketch.com -->
    <title>Artboard</title>
    <desc>Created with Sketch.</desc>
    <g id="Artboard" stroke="none" stroke-width="1" fill="none" fill-rule="evenodd">
        <path d="M1.17,24.2 L3.54,23.9 L3.54,5.96 L1.29,5.54 L1.29,3.71 L5.64,3.71 C6.0200019,3.71 6.4399977,3.7000001 6.9,3.68 L7.50750041,3.65 C7.68249998,3.64000003 7.8299994,3.63000005 7.95,3.62 C8.9900052,3.5399996 9.8499966,3.5 10.53,3.5 C12.5900103,3.5 14.2399938,3.7099979 15.48,4.13 C16.7200062,4.5500021 17.6199972,5.1899957 18.18,6.05 C18.7400028,6.9100043 19.02,8.039993 19.02,9.44 C19.02,10.8200069 18.6500037,12.0999941 17.91,13.28 C17.17,14.4600059 16.100007,15.2699978 14.7,15.71 C15.500004,16.0500017 16.2099969,16.6699955 16.83,17.57 C17.4500031,18.4700045 18.1099965,19.6399928 18.81,21.08 L19.1934306,21.8204563 C19.5114471,22.4240926 19.7686354,22.8822712 19.965,23.195 C20.2350014,23.6250022 20.4999987,23.8699997 20.76,23.93 L21.75,24.23 L21.75,26 L16.65,26 C16.3299984,26 15.9950018,25.6750033 15.645,25.025 C15.3757679,24.5249975 15.0444093,23.8031095 14.6509181,22.859322 L13.957499,21.1599975 C13.4324984,19.8933289 12.970002,18.8766705 12.57,18.11 C12.0899976,17.1899954 11.5800027,16.6200011 11.04,16.4 L7.95,16.4 L7.95,23.9 L10.71,24.2 L10.71,26 L1.17,26 L1.17,24.2 Z M10.71,14.57 C11.8500057,14.57 12.7399968,14.1600041 13.38,13.34 C14.0200032,12.5199959 14.34,11.2900082 14.34,9.65 C14.34,8.1899927 14.0250032,7.1100035 13.395,6.41 C12.7649969,5.7099965 11.6800077,5.36 10.14,5.36 C9.673331,5.36 9.26569502,5.37736094 8.91708382,5.41208325 L8.17867311,5.49622457 C8.077653,5.50540821 8.00142883,5.51 7.95,5.51 L7.95,14.51 L8.09833343,14.5283334 C8.39277733,14.5561113 8.9233295,14.57 9.69,14.57 L10.71,14.57 Z M30.54,26.33 C27.8999868,26.33 25.9350065,25.5550078 24.645,24.005 C23.3549936,22.4549923 22.71,20.3400134 22.71,17.66 C22.71,15.859991 23.0449967,14.3000066 23.715,12.98 C24.3850034,11.6599934 25.3299939,10.6500035 26.55,9.95 C27.7700061,9.2499965 29.179992,8.9 30.78,8.9 C32.78001,8.9 34.3199946,9.42499475 35.4,10.475 C36.4800054,11.5250053 37.0399998,13.0199903 37.08,14.96 C37.08,16.2800066 37.0000008,17.2599968 36.84,17.9 L27.09,17.9 C27.1700004,19.7200091 27.5999961,21.134995 28.38,22.145 C29.1600039,23.1550051 30.2699928,23.66 31.71,23.66 C32.4900039,23.66 33.2949959,23.5300013 34.125,23.27 C34.9550042,23.0099987 35.6099976,22.7000018 36.09,22.34 L36.84,23.99 C36.2999973,24.5700029 35.4250061,25.1049976 34.215,25.595 C33.004994,26.0850025 31.7800062,26.33 30.54,26.33 Z M27.09,16.1 L32.88,16.1 L32.9093878,15.6518358 C32.929796,15.3048971 32.94,15.0242868 32.94,14.81 C32.94,12.1499867 32.0500089,10.82 30.27,10.82 C29.2899951,10.82 28.5300027,11.2099961 27.99,11.99 C27.4499973,12.7700039 27.1500003,14.1399902 27.09,16.1 Z M66.15,8.9 C68.15001,8.9 69.6899946,9.42499475 70.77,10.475 C71.8500054,11.5250053 72.4099998,13.0199903 72.45,14.96 C72.45,16.2800066 72.3700008,17.2599968 72.21,17.9 L62.46,17.9 C62.5400004,19.7200091 62.9699961,21.134995 63.75,22.145 C64.5300039,23.1550051 65.6399928,23.66 67.08,23.66 C67.8600039,23.66 68.6649958,23.5300013 69.495,23.27 C70.3250042,23.0099987 70.9799976,22.7000018 71.46,22.34 L72.21,23.99 C71.6699973,24.5700029 70.7950061,25.1049976 69.585,25.595 C68.374994,26.0850025 67.1500062,26.33 65.91,26.33 C63.2699868,26.33 61.3050065,25.5550078 60.015,24.005 C58.7249936,22.4549923 58.08,20.3400134 58.08,17.66 C58.08,15.859991 58.4149966,14.3000066 59.085,12.98 C59.7550034,11.6599934 60.6999939,10.6500035 61.92,9.95 C63.1400061,9.2499965 64.549992,8.9 66.15,8.9 Z M88.98,1.4 L89.82,2.03 L89.82,24.17 L91.44,24.17 L91.44,25.88 C89.9999928,26.1800015 88.8100047,26.33 87.87,26.33 C87.2299968,26.33 86.7750013,26.2250011 86.505,26.015 C86.2349986,25.804999 86.1,25.3900031 86.1,24.77 L86.1,23.93 C85.58,24.6300035 84.8700045,25.2049978 83.97,25.655 C83.0699955,26.1050023 82.120005,26.33 81.12,26.33 C79.8799938,26.33 78.7700049,26.035003 77.79,25.445 C76.8099951,24.8549971 76.0300029,23.9400062 75.45,22.7 C74.8699971,21.4599938 74.58,19.9100093 74.58,18.05 C74.58,16.3699916 74.9249966,14.835007 75.615,13.445 C76.3050035,12.0549931 77.3199933,10.9500041 78.66,10.13 C80.0000067,9.3099959 81.6099906,8.9 83.49,8.9 C84.2500038,8.9 84.9699966,8.9799992 85.65,9.14 L85.65,4.07 L82.71,3.65 L82.71,2 L88.89,1.4 L88.98,1.4 Z M44.28,1.4 L45.09,1.97 L45.09,16.22 L45,17.81 L51.12,11.39 L48.9,11.06 L48.9,9.35 L56.73,9.35 L56.73,11.06 L54.3,11.45 L50.61,14.99 L55.86,23.96 L57.51,24.2 L57.51,26 L49.59,26 L49.59,24.2 L51.12,23.93 L47.7,17.6 L45,20.33 L45.06,21.86 L45.06,23.93 L46.95,24.2 L46.95,26 L39.12,26 L39.12,24.2 L40.86,23.93 L40.86,4.07 L38.7,3.68 L38.7,2.06 L44.22,1.4 L44.28,1.4 Z M83.31,10.82 C82.0299936,10.82 81.0050039,11.3749945 80.235,12.485 C79.4649961,13.5950056 79.08,15.3699878 79.08,17.81 C79.08,19.8500102 79.4099967,21.3649951 80.07,22.355 C80.7300033,23.345005 81.5999946,23.84 82.68,23.84 C83.3400033,23.84 83.9249975,23.7050014 84.435,23.435 C84.9450025,23.1649987 85.3499985,22.8400019 85.65,22.46 L85.65,22.46 L85.65,11.54 C85.5099993,11.339999 85.2150022,11.1700007 84.765,11.03 C84.3149978,10.8899993 83.8300026,10.82 83.31,10.82 Z M65.64,10.82 C64.6599951,10.82 63.9000027,11.2099961 63.36,11.99 C62.8199973,12.7700039 62.5200003,14.1399902 62.46,16.1 L68.25,16.1 L68.2904082,15.4516319 C68.3034695,15.1953059 68.31,14.9814294 68.31,14.81 C68.31,12.1499867 67.4200089,10.82 65.64,10.82 Z" id="Reked" fill="#212121" fill-rule="nonzero"></path>
    </g>
</svg>